<?xml version="1.0" encoding="utf-8"?>
<!-- Generator: Adobe Illustrator 21.0.0, SVG Export Plug-In . SVG Version: 6.00 Build 0)  -->
<svg version="1.1" id="Layer_1" xmlns="http://www.w3.org/2000/svg" xmlns:xlink="http://www.w3.org/1999/xlink" x="0px" y="0px"
	 viewBox="0 0 299.6 302.8" style="enable-background:new 0 0 299.6 302.8;" xml:space="preserve">
<title>efficient-app</title>
<path d="M0,269.8c5-20.2,18.7-31.7,38.6-38.1l6.5,8.5c-20,9.6-37.4,20.3-31.1,46.2c24.4,4.3,37.6-9.3,45.8-31.1l4.6,0.9
	c0.7,4,3.1,8.5,2,11.8c-6.1,18.1-18.7,29.1-38.1,30.8c-9.4,0.8-18.9,0.6-28.3,0.9L0,269.8z"/>
<path d="M58.5,179.1l-44.2-13c13-15.8,23.2-29.1,34.8-41.2c2.9-3.1,10.5-3.5,15.5-2.6c29.7,5.5,49-7.2,66.3-30.8
	c21.1-28.6,46.1-54.7,81.2-66.4c24.9-8.2,50.7-13.3,80.3-20.8c-1.7,16-2.4,26.6-4,37.2c-7.2,45.6-26.7,84.4-62.9,114.1
	c-3.9,3.2-7.1,7.2-11.3,9.8c-28,17.1-42.3,40.4-36,74.4c0.9,4.6-2.9,11.7-6.7,15.3c-10.7,10.2-22.6,19.2-37.3,31.4l-12.7-43.9
	c-21.4,7.5-39.6,24.5-63.9-0.5C34.1,218,49.8,200.4,58.5,179.1z M279,21.4c-49.6,4.6-90.7,21.1-122.1,57.8
	c-22.7,26.6-45.4,53.2-67.7,80.2c-26.6,32.2-25.8,37.5,7.5,64.4c2.7,2.2,5.4,5.1,8.6,5.8c4.3,0.9,10.5,1.8,13.2-0.4
	c40.4-34.1,82-67.2,120-103.9C266.4,98.3,275.4,61.3,279,21.4z M165,208.7c-38.4,29.4-35.7,19-23.7,54.3
	C166.9,248.7,170,241.9,165,208.7z M91.6,135.2c-35.3-3.7-43.5,0.3-54,25.1C69.8,170,69.8,170,91.6,135.2z M92.8,241.9l-33.2-35.6
	c-12.5,12.3,1.3,19.7,8.8,27.5C75.4,241,83,252.7,92.8,241.9L92.8,241.9z"/>
<path d="M231.7,98.2c0,16.4-13.3,29.7-29.4,29.7S173,114.3,173,98c-0.2-16,12.6-29.2,28.7-29.3c0.3,0,0.5,0,0.8,0
	C219,68.7,231.7,81.5,231.7,98.2z M222.2,102.5l0.4-7c-6.2-4.9-11.7-12.5-18.7-14.2c-10.9-2.6-18.1,4.8-18.7,16s6.5,19.2,17.1,17.9
	C209.3,114.4,215.5,107,222.2,102.5L222.2,102.5z"/>
</svg>
