<?xml version="1.0" encoding="utf-8"?>
<!-- Generator: Adobe Illustrator 21.0.0, SVG Export Plug-In . SVG Version: 6.00 Build 0)  -->
<svg version="1.1" id="Layer_1" xmlns="http://www.w3.org/2000/svg" xmlns:xlink="http://www.w3.org/1999/xlink" x="0px" y="0px"
	 viewBox="0 0 75.6 75.7" style="enable-background:new 0 0 75.6 75.7;" xml:space="preserve">
<title>software-engineering</title>
<path d="M50,68.3l-0.4,4c-3.1,0.1-3.2-0.3-2.4-7.1c2.1,0,4.4,0,6.5,0c5.3-0.1,9.3-3.5,9.2-8.8c0-6.1-0.4-11.9,7.8-13
	c-0.3-0.9-0.6-1.8-1-2.6c-3.5-6-6.6-12-8.3-19c-2.3-9.6-9.3-15.4-19.1-16.6C36.9,4.6,31,4.5,25.7,5.8C8.4,10,1,31.5,11.1,47.7
	c4.4,6.9,6.6,14.2,6,22.3c-0.1,1-1,2-1.5,3l-1.4-0.5c0-1.4,0-2.7,0-4c0.3-6.7-1.6-13.2-5.4-18.7c-4.4-6.5-6.1-14.4-4.8-22.2
	C6.8,9.2,20.9-0.9,40,1.7c14.7,2,22.2,9.3,25.7,23.7c1.1,4.7,4,9,6.3,13.4s2,6.5-2.5,8.2c-3.9,1.5-3.4,4.3-3.4,7.2
	c0,9.4-4.6,14-14,14C51.5,68.2,50.9,68.3,50,68.3z"/>
<path d="M39.4,22.6c-1.5,7-2.9,13.6-4.3,20.1c-0.1,0.6-1.1,1-1.7,1.6c-0.4-0.8-1.1-1.7-1-2.4c1.3-6.4,2.6-12.9,4.1-19.3
	c0.2-0.7,1.3-1.2,1.9-1.7L39.4,22.6z"/>
<path d="M26.9,38.4c-0.4,0.5-0.7,1.2-1.1,1.4c-0.6,0.1-1.2,0-1.6-0.4c-1.6-1.9-3.4-3.8-4.4-6c-0.4-0.9,0.8-3,1.8-4
	c1.4-1.4,1.4-4.7,4.7-3.7c-0.8,1.6-1.5,3.3-2.1,5c-0.4,1.2-0.3,2.6,0.1,3.8C24.7,35.9,25.9,37,26.9,38.4z"/>
<path d="M52.4,32.7c-1.7,2.3-3.2,4.4-4.9,6.4c-0.4,0.5-1.5,0.4-2.2,0.6c0-0.8-0.3-1.7,0-2.3c0.9-1.6,2.1-3,3.3-4.6
	c-1.2-1.7-2.4-3.2-3.5-4.9c-0.3-0.5,0-1.4,0-2c0.8,0.1,1.8,0,2.2,0.4C49.1,28.1,50.6,30.3,52.4,32.7z"/>
</svg>
