<?xml version="1.0" encoding="utf-8"?>
<!-- Generator: Adobe Illustrator 21.0.0, SVG Export Plug-In . SVG Version: 6.00 Build 0)  -->
<svg version="1.1" id="Layer_1" xmlns="http://www.w3.org/2000/svg" xmlns:xlink="http://www.w3.org/1999/xlink" x="0px" y="0px"
	 viewBox="0 0 457.5 457.5" style="enable-background:new 0 0 457.5 457.5;" xml:space="preserve">
<title>useful-app</title>
<path d="M171.2,375.6c5.5-22.4-7.9-40.8-24.6-58.5c-25.8-27.4-45.6-57.9-47.2-97.3c-2.2-55.8,27.1-103.7,76.4-124.4
	c48.4-20.3,105.6-8,141,30.4c36.3,39.5,44,97.4,19.2,145c-8.3,16-18.9,30.8-31.5,43.7c-19.2,19.6-27.6,40.8-26.3,68.7
	c1.9,40.8-32.3,61.9-71.1,46.2C170.8,414.6,170.8,414.6,171.2,375.6z M226.1,348.1c12.7-2.6,29.4-1.1,37.3-8.8
	c18.1-17.6,32.6-39.2,47.5-60c21.6-30,27-63.8,16.7-98.9c-12.4-42.2-41.9-68.1-84.8-75.2c-44.7-7.3-82.3,8.1-107.6,46.6
	c-25.6,39-24.7,80.1-1.3,119.6c10.3,17.3,27.5,30.6,37.3,48.1C183.9,342.5,200.2,352,226.1,348.1L226.1,348.1z M256.4,406.6
	l-0.1-6.9c-10.3,0-20.7,1-30.8-0.4c-6.3-0.8-12.2-5.1-18.2-7.8c6.4-3.3,12.5-8,19.4-9.6c7.1-1.7,15.1,0.5,22.4-0.8
	c4-0.7,7.5-4.9,11.2-7.5c-3.8-3.4-7.4-9.5-11.4-9.7c-19.2-1-38.5-0.5-59.1-0.5l4.8,43L256.4,406.6z"/>
<path d="M360.8,61.5c1.9,12,5.3,19.1,3.1,21.8c-7.8,9.8-17.2,18.5-26.6,26.9c-2,1.8-7,1.5-9.9,0.3c-1.9-0.8-4.2-6.4-3.4-7.3
	C334.3,90.8,345.1,79,360.8,61.5z"/>
<path d="M393.5,220.3c-4.5,0-9.5,1.3-13.3-0.3c-4.6-2-8.2-6.4-12.3-9.8c4.1-2.4,8-6.5,12.3-7c9.6-1.1,19.4-1.1,29,0
	c4.2,0.5,7.9,4.6,11.9,7c-4,3.3-7.5,8-12.2,9.6S398.7,220.2,393.5,220.3z"/>
<path d="M113.6,308.7c5.2,3.3,9.1,4.4,9.7,6.5c0.9,3,0.9,7.9-1,10c-7.9,9-16.1,18-25.5,25.2c-2.3,1.8-9.7-3.1-14.7-4.9L113.6,308.7z
	"/>
<path d="M217.1,66.7c0-15.5-0.3-31,0.4-46.4c0.1-2.1,4.9-5,7.8-5.6c1.9-0.4,6.2,2.7,6.4,4.6c2,16.2,7.2,33.1-4.5,47.4L217.1,66.7z"
	/>
<path d="M53,198.4l26.9,12.8c-8.8,3.1-17.7,8.5-26.5,8.6s-17.5-5.4-26.3-8.5L53,198.4z"/>
<path d="M127.9,101.5c-2.7,4.3-3.8,8-5.9,8.8c-3,1.1-8,1.5-10-0.3c-9.5-8.6-18.5-17.7-26.9-27.3c-1.7-1.9-1.1-7,0.3-9.8
	c0.9-1.9,6.4-4.1,7.3-3.3C104.5,79.8,115.9,90.5,127.9,101.5z"/>
<path d="M367.4,350.1c-4.7,0.6-11.2,3.4-13.8,1.3c-9.8-8.1-18.8-17.1-26.8-27c-1.5-1.8,3.1-8.7,4.9-13.2l38.1,31.5L367.4,350.1z"/>
</svg>
